<?xml version="1.0" encoding="utf-8"?>
<!-- Generator: Adobe Illustrator 25.2.1, SVG Export Plug-In . SVG Version: 6.00 Build 0)  -->
<svg version="1.1" id="Layer_1" xmlns="http://www.w3.org/2000/svg" xmlns:xlink="http://www.w3.org/1999/xlink" x="0px" y="0px"
	 viewBox="0 0 371.09 88.71" style="enable-background:new 0 0 371.09 88.71;" xml:space="preserve">
<style type="text/css">
	.st0{fill:#44443C;}
	.st1{fill-rule:evenodd;clip-rule:evenodd;fill:#A8DDE0;}
	.st2{fill-rule:evenodd;clip-rule:evenodd;fill:none;}
	.st3{fill-rule:evenodd;clip-rule:evenodd;fill:#D4421A;}
	.st4{fill-rule:evenodd;clip-rule:evenodd;fill:#D8E356;}
	.st5{fill-rule:evenodd;clip-rule:evenodd;fill:#B43B09;}
	.st6{fill-rule:evenodd;clip-rule:evenodd;fill:#8EC54C;}
</style>
<g>
	<g>
		<path class="st0" d="M160,23.22h-9.57v9.89h-4.98V8.91h15.75v4.04h-10.77v6.25H160V23.22z"/>
		<path class="st0" d="M173.75,31.28c-0.57,0.69-1.25,1.22-2.06,1.6s-1.76,0.56-2.86,0.56c-0.89,0-1.69-0.12-2.43-0.37
			c-0.73-0.25-1.36-0.64-1.89-1.18c-0.53-0.54-0.93-1.23-1.22-2.08c-0.29-0.85-0.43-1.86-0.43-3.05V15.12h4.8v11.66
			c0,0.5,0.06,0.92,0.19,1.28c0.13,0.35,0.3,0.64,0.53,0.86c0.23,0.22,0.5,0.37,0.81,0.47c0.31,0.1,0.65,0.15,1.03,0.15
			c0.86,0,1.57-0.15,2.11-0.45c0.54-0.3,0.96-0.71,1.25-1.25V15.12h4.82V33.1h-4.52L173.75,31.28z"/>
		<path class="st0" d="M186.41,15.12l0.15,2.08c0.62-0.78,1.37-1.37,2.24-1.79c0.88-0.42,1.85-0.62,2.92-0.62
			c0.85,0,1.63,0.12,2.33,0.36c0.7,0.24,1.3,0.63,1.79,1.17c0.5,0.54,0.88,1.25,1.16,2.13s0.41,1.95,0.41,3.22V33.1h-4.8V21.64
			c0-0.58-0.06-1.05-0.19-1.43c-0.13-0.38-0.31-0.68-0.56-0.9c-0.24-0.22-0.54-0.38-0.9-0.47s-0.76-0.14-1.23-0.14
			c-0.71,0-1.32,0.16-1.82,0.47c-0.5,0.31-0.91,0.73-1.22,1.26V33.1h-4.8V15.12H186.41z"/>
		<path class="st0" d="M200.19,23.98c0-1.36,0.16-2.61,0.47-3.74c0.32-1.13,0.77-2.1,1.37-2.91c0.6-0.81,1.33-1.43,2.21-1.88
			c0.88-0.44,1.87-0.66,2.99-0.66c0.92,0,1.74,0.17,2.45,0.52c0.71,0.34,1.34,0.83,1.89,1.45V7.58h4.82V33.1h-4.34l-0.23-1.91
			c-0.56,0.71-1.22,1.26-1.98,1.65c-0.75,0.39-1.63,0.59-2.64,0.59c-1.11,0-2.1-0.23-2.97-0.69c-0.87-0.46-1.6-1.09-2.2-1.9
			c-0.6-0.81-1.05-1.77-1.37-2.88c-0.32-1.11-0.47-2.32-0.47-3.63V23.98z M204.99,24.33c0,0.73,0.06,1.41,0.18,2.04
			s0.32,1.18,0.59,1.65s0.63,0.84,1.06,1.11s0.97,0.41,1.6,0.41c0.78,0,1.42-0.17,1.94-0.5c0.52-0.33,0.92-0.79,1.21-1.38v-7.09
			c-0.29-0.6-0.69-1.06-1.21-1.39c-0.51-0.33-1.15-0.49-1.9-0.49c-0.63,0-1.17,0.14-1.61,0.41c-0.44,0.27-0.8,0.65-1.07,1.12
			c-0.27,0.48-0.47,1.04-0.6,1.68c-0.13,0.64-0.19,1.33-0.19,2.08V24.33z"/>
		<path class="st0" d="M230.36,33.1c-0.22-0.43-0.38-0.97-0.48-1.61c-0.49,0.54-1.1,1-1.84,1.38c-0.74,0.38-1.64,0.56-2.7,0.56
			c-0.86,0-1.67-0.13-2.42-0.4c-0.75-0.27-1.4-0.64-1.94-1.11c-0.55-0.48-0.98-1.04-1.29-1.7c-0.31-0.66-0.47-1.38-0.47-2.17
			c0-0.94,0.17-1.78,0.52-2.51c0.35-0.73,0.87-1.35,1.57-1.86c0.7-0.51,1.56-0.9,2.6-1.16c1.04-0.27,2.24-0.4,3.61-0.4h2.14v-1.03
			c0-0.83-0.21-1.5-0.64-1.99c-0.43-0.5-1.1-0.75-2.02-0.75c-0.81,0-1.44,0.19-1.9,0.58s-0.69,0.92-0.69,1.6h-4.8
			c0-0.78,0.18-1.51,0.54-2.21c0.36-0.7,0.87-1.31,1.54-1.83c0.67-0.52,1.47-0.93,2.41-1.24c0.94-0.3,1.99-0.46,3.16-0.46
			c1.04,0,2,0.13,2.89,0.4c0.89,0.27,1.65,0.66,2.29,1.19c0.64,0.53,1.14,1.19,1.5,1.98c0.36,0.79,0.54,1.71,0.54,2.77v7.61
			c0,0.51,0.02,0.97,0.05,1.37s0.08,0.77,0.13,1.1s0.13,0.62,0.22,0.88c0.09,0.26,0.19,0.51,0.32,0.74v0.28H230.36z M226.39,29.76
			c0.41,0,0.79-0.05,1.14-0.15s0.66-0.23,0.94-0.39c0.28-0.16,0.52-0.35,0.72-0.56c0.2-0.21,0.37-0.43,0.49-0.65v-3.09h-1.98
			c-0.63,0-1.18,0.07-1.65,0.21c-0.46,0.14-0.85,0.33-1.15,0.58c-0.3,0.25-0.52,0.54-0.66,0.88c-0.14,0.34-0.22,0.71-0.22,1.1
			c0,0.6,0.21,1.09,0.63,1.48S225.66,29.76,226.39,29.76z"/>
		<path class="st0" d="M245.35,29.56c0.44,0,0.85-0.06,1.21-0.19c0.37-0.13,0.68-0.31,0.95-0.54c0.27-0.23,0.47-0.51,0.62-0.84
			c0.15-0.33,0.23-0.7,0.24-1.1h4.5c-0.01,0.95-0.21,1.83-0.6,2.63s-0.91,1.5-1.58,2.08c-0.66,0.58-1.45,1.03-2.35,1.35
			c-0.9,0.32-1.88,0.48-2.92,0.48c-1.4,0-2.62-0.24-3.66-0.71s-1.91-1.11-2.59-1.93c-0.69-0.81-1.2-1.77-1.54-2.87
			c-0.34-1.1-0.52-2.29-0.52-3.56V23.9c0-1.27,0.17-2.46,0.52-3.57c0.34-1.11,0.86-2.07,1.54-2.89s1.55-1.46,2.58-1.94
			c1.04-0.47,2.25-0.71,3.63-0.71c1.11,0,2.12,0.16,3.03,0.49c0.91,0.33,1.7,0.79,2.35,1.4c0.65,0.61,1.16,1.35,1.53,2.22
			c0.37,0.87,0.55,1.84,0.56,2.92h-4.5c-0.01-0.43-0.09-0.84-0.22-1.22c-0.14-0.38-0.34-0.71-0.59-1c-0.26-0.28-0.57-0.51-0.95-0.67
			c-0.38-0.17-0.81-0.25-1.3-0.25c-0.7,0-1.27,0.14-1.71,0.43s-0.79,0.67-1.04,1.15c-0.25,0.48-0.42,1.04-0.51,1.67
			c-0.09,0.63-0.13,1.29-0.13,1.96v0.46c0,0.69,0.04,1.35,0.13,1.98c0.09,0.63,0.26,1.19,0.51,1.66c0.25,0.48,0.59,0.86,1.04,1.14
			C244.05,29.42,244.63,29.56,245.35,29.56z"/>
		<path class="st0" d="M255.33,10.47c0-0.72,0.24-1.31,0.72-1.78c0.48-0.46,1.14-0.7,1.97-0.7c0.41,0,0.78,0.06,1.11,0.18
			c0.33,0.12,0.61,0.29,0.85,0.51c0.23,0.22,0.41,0.48,0.54,0.79c0.13,0.3,0.19,0.63,0.19,0.99c0,0.37-0.06,0.7-0.19,1
			c-0.13,0.31-0.31,0.57-0.54,0.79c-0.23,0.22-0.52,0.39-0.85,0.52c-0.33,0.12-0.7,0.18-1.11,0.18c-0.41,0-0.78-0.06-1.11-0.18
			c-0.33-0.12-0.62-0.29-0.85-0.52s-0.41-0.48-0.54-0.79C255.4,11.17,255.33,10.84,255.33,10.47z M260.44,33.1h-4.82V15.12h4.82
			V33.1z"/>
		<path class="st0" d="M263.28,23.95c0-1.31,0.19-2.52,0.57-3.64c0.38-1.12,0.92-2.09,1.64-2.9s1.61-1.45,2.67-1.92
			c1.06-0.47,2.26-0.7,3.61-0.7c1.36,0,2.58,0.23,3.64,0.7c1.06,0.46,1.96,1.1,2.68,1.92s1.28,1.78,1.65,2.9
			c0.38,1.12,0.56,2.33,0.56,3.64v0.35c0,1.32-0.19,2.53-0.56,3.65c-0.38,1.11-0.93,2.08-1.65,2.89c-0.73,0.81-1.61,1.45-2.67,1.91
			s-2.26,0.69-3.62,0.69s-2.57-0.23-3.63-0.69s-1.95-1.1-2.67-1.91c-0.73-0.81-1.28-1.78-1.65-2.89c-0.38-1.11-0.57-2.33-0.57-3.65
			V23.95z M268.08,24.3c0,0.73,0.07,1.42,0.2,2.06s0.35,1.2,0.64,1.67c0.29,0.47,0.68,0.84,1.15,1.12s1.05,0.42,1.74,0.42
			c0.66,0,1.23-0.14,1.7-0.42s0.86-0.65,1.15-1.12c0.3-0.47,0.52-1.03,0.65-1.67s0.2-1.33,0.2-2.06v-0.35c0-0.71-0.07-1.38-0.2-2.02
			c-0.13-0.64-0.35-1.2-0.65-1.68c-0.3-0.48-0.69-0.86-1.16-1.15c-0.48-0.28-1.05-0.42-1.73-0.42c-0.67,0-1.23,0.14-1.7,0.42
			c-0.47,0.28-0.85,0.66-1.15,1.15c-0.29,0.48-0.51,1.04-0.64,1.68c-0.13,0.64-0.2,1.31-0.2,2.02V24.3z M272.71,7.58h5.23l-4.6,5.15
			h-3.9L272.71,7.58z"/>
		<path class="st0" d="M287.59,15.12l0.15,2.08c0.62-0.78,1.37-1.37,2.24-1.79c0.88-0.42,1.85-0.62,2.92-0.62
			c0.85,0,1.63,0.12,2.33,0.36c0.7,0.24,1.3,0.63,1.79,1.17c0.5,0.54,0.88,1.25,1.16,2.13s0.41,1.95,0.41,3.22V33.1h-4.8V21.64
			c0-0.58-0.06-1.05-0.19-1.43c-0.13-0.38-0.31-0.68-0.56-0.9c-0.24-0.22-0.54-0.38-0.9-0.47s-0.76-0.14-1.23-0.14
			c-0.71,0-1.32,0.16-1.82,0.47c-0.5,0.31-0.91,0.73-1.22,1.26V33.1h-4.8V15.12H287.59z"/>
		<path class="st0" d="M164.44,63.57c-0.09,1.23-0.37,2.36-0.83,3.39c-0.47,1.03-1.11,1.91-1.93,2.65s-1.81,1.31-2.98,1.73
			c-1.17,0.42-2.5,0.62-4,0.62c-1.55,0-2.94-0.27-4.18-0.81c-1.24-0.54-2.28-1.31-3.14-2.32s-1.52-2.23-1.98-3.66
			c-0.46-1.43-0.69-3.04-0.69-4.83v-1.6c0-1.78,0.24-3.4,0.71-4.84c0.48-1.44,1.15-2.66,2.02-3.67c0.87-1.01,1.92-1.78,3.17-2.33
			c1.24-0.54,2.63-0.81,4.15-0.81c1.51,0,2.84,0.21,4,0.64c1.16,0.43,2.14,1.02,2.95,1.78s1.44,1.66,1.89,2.71s0.74,2.19,0.86,3.41
			h-4.99c-0.06-0.72-0.18-1.36-0.37-1.91c-0.19-0.55-0.47-1.02-0.84-1.4s-0.84-0.66-1.41-0.86s-1.27-0.29-2.09-0.29
			c-1.68,0-2.94,0.61-3.76,1.84s-1.24,3.12-1.24,5.69v1.63c0,1.25,0.09,2.35,0.27,3.29c0.18,0.94,0.47,1.73,0.86,2.36
			c0.39,0.63,0.9,1.11,1.53,1.42s1.38,0.47,2.27,0.47c0.79,0,1.46-0.09,2.04-0.27c0.57-0.18,1.05-0.45,1.43-0.81
			c0.38-0.36,0.68-0.81,0.89-1.35c0.21-0.54,0.34-1.17,0.4-1.89H164.44z"/>
		<path class="st0" d="M172.36,71.63h-4.82V46.11h4.82V71.63z"/>
		<path class="st0" d="M186.48,71.63c-0.22-0.43-0.38-0.97-0.48-1.61c-0.49,0.54-1.1,1-1.84,1.38c-0.74,0.38-1.64,0.57-2.7,0.57
			c-0.86,0-1.67-0.13-2.42-0.4s-1.4-0.64-1.94-1.11c-0.55-0.48-0.98-1.04-1.29-1.7c-0.31-0.66-0.47-1.38-0.47-2.17
			c0-0.94,0.17-1.78,0.52-2.51c0.35-0.73,0.87-1.35,1.57-1.86c0.7-0.51,1.56-0.9,2.6-1.16c1.04-0.27,2.24-0.4,3.61-0.4h2.14v-1.03
			c0-0.83-0.21-1.5-0.64-1.99c-0.43-0.5-1.1-0.75-2.02-0.75c-0.81,0-1.44,0.19-1.9,0.58s-0.69,0.92-0.69,1.6h-4.8
			c0-0.78,0.18-1.51,0.54-2.21c0.36-0.7,0.87-1.31,1.54-1.83c0.67-0.52,1.47-0.93,2.41-1.24c0.94-0.3,1.99-0.46,3.16-0.46
			c1.04,0,2,0.13,2.89,0.4c0.89,0.27,1.65,0.66,2.29,1.19c0.64,0.53,1.14,1.19,1.5,1.98c0.36,0.79,0.54,1.71,0.54,2.77v7.61
			c0,0.51,0.02,0.97,0.05,1.37s0.08,0.77,0.13,1.1c0.06,0.33,0.13,0.62,0.22,0.88c0.09,0.26,0.19,0.51,0.32,0.74v0.28H186.48z
			 M182.5,68.29c0.41,0,0.79-0.05,1.14-0.15s0.66-0.23,0.94-0.39c0.28-0.16,0.52-0.35,0.72-0.56c0.2-0.21,0.37-0.43,0.49-0.65v-3.09
			h-1.98c-0.63,0-1.18,0.07-1.65,0.21c-0.46,0.14-0.85,0.33-1.15,0.58c-0.3,0.25-0.52,0.54-0.66,0.88c-0.14,0.34-0.22,0.71-0.22,1.1
			c0,0.6,0.21,1.09,0.63,1.48S181.77,68.29,182.5,68.29z"/>
		<path class="st0" d="M204.24,58.15c-0.24-0.03-0.53-0.06-0.86-0.09c-0.33-0.03-0.62-0.04-0.87-0.04c-0.94,0-1.7,0.16-2.28,0.47
			c-0.58,0.32-1.01,0.77-1.29,1.37v11.76h-4.8V53.65h4.54l0.13,2.14c0.45-0.78,1.01-1.38,1.68-1.82c0.66-0.44,1.44-0.66,2.33-0.66
			c0.25,0,0.52,0.02,0.81,0.07c0.28,0.04,0.51,0.09,0.69,0.15L204.24,58.15z"/>
		<path class="st0" d="M216.87,71.63c-0.22-0.43-0.38-0.97-0.48-1.61c-0.49,0.54-1.1,1-1.84,1.38c-0.74,0.38-1.64,0.57-2.7,0.57
			c-0.86,0-1.67-0.13-2.42-0.4c-0.75-0.27-1.4-0.64-1.94-1.11c-0.55-0.48-0.98-1.04-1.29-1.7s-0.46-1.38-0.46-2.17
			c0-0.94,0.17-1.78,0.52-2.51c0.35-0.73,0.87-1.35,1.57-1.86c0.7-0.51,1.56-0.9,2.6-1.16c1.04-0.27,2.24-0.4,3.61-0.4h2.14v-1.03
			c0-0.83-0.21-1.5-0.64-1.99s-1.1-0.75-2.02-0.75c-0.81,0-1.44,0.19-1.9,0.58c-0.46,0.39-0.69,0.92-0.69,1.6h-4.8
			c0-0.78,0.18-1.51,0.54-2.21c0.36-0.7,0.87-1.31,1.54-1.83c0.67-0.52,1.47-0.93,2.41-1.24s1.99-0.46,3.16-0.46
			c1.04,0,2,0.13,2.89,0.4c0.89,0.27,1.65,0.66,2.29,1.19c0.64,0.53,1.14,1.19,1.5,1.98c0.36,0.79,0.54,1.71,0.54,2.77v7.61
			c0,0.51,0.02,0.97,0.05,1.37s0.08,0.77,0.13,1.1c0.05,0.33,0.13,0.62,0.22,0.88c0.09,0.26,0.19,0.51,0.32,0.74v0.28H216.87z
			 M212.9,68.29c0.41,0,0.79-0.05,1.14-0.15c0.35-0.1,0.66-0.23,0.94-0.39c0.28-0.16,0.52-0.35,0.72-0.56
			c0.21-0.21,0.37-0.43,0.49-0.65v-3.09h-1.98c-0.63,0-1.18,0.07-1.64,0.21c-0.47,0.14-0.85,0.33-1.15,0.58
			c-0.3,0.25-0.52,0.54-0.67,0.88c-0.14,0.34-0.22,0.71-0.22,1.1c0,0.6,0.21,1.09,0.63,1.48C211.59,68.1,212.16,68.29,212.9,68.29z"
			/>
		<path class="st0" d="M238.78,71.63h-4.98V47.44h4.98V71.63z"/>
		<path class="st0" d="M247.39,53.65l0.15,2.08c0.62-0.78,1.37-1.37,2.24-1.79c0.88-0.42,1.85-0.62,2.92-0.62
			c0.85,0,1.63,0.12,2.33,0.36c0.7,0.24,1.3,0.63,1.79,1.17c0.5,0.54,0.88,1.25,1.15,2.13s0.41,1.95,0.41,3.22v11.43h-4.8V60.17
			c0-0.58-0.06-1.05-0.19-1.43s-0.31-0.68-0.56-0.9c-0.24-0.22-0.54-0.38-0.9-0.47s-0.76-0.14-1.23-0.14
			c-0.71,0-1.32,0.16-1.82,0.47c-0.5,0.31-0.91,0.73-1.22,1.26v12.68h-4.8V53.65H247.39z"/>
		<path class="st0" d="M270.03,71.96c-1.4,0-2.64-0.23-3.75-0.68c-1.1-0.45-2.04-1.07-2.81-1.86c-0.77-0.79-1.36-1.71-1.76-2.77
			c-0.4-1.06-0.61-2.19-0.61-3.4v-0.65c0-1.36,0.2-2.61,0.59-3.75c0.39-1.14,0.95-2.11,1.68-2.93s1.61-1.46,2.64-1.92
			c1.04-0.46,2.2-0.69,3.48-0.69c1.3,0,2.44,0.21,3.42,0.64c0.99,0.43,1.81,1.02,2.48,1.79c0.67,0.77,1.17,1.7,1.51,2.78
			s0.51,2.29,0.51,3.62v2.04h-11.45c0.08,0.59,0.24,1.12,0.47,1.59c0.24,0.48,0.54,0.88,0.91,1.22s0.81,0.6,1.3,0.79
			c0.5,0.19,1.06,0.28,1.68,0.28c0.88,0,1.68-0.16,2.43-0.49c0.74-0.33,1.38-0.83,1.91-1.52l2.36,2.64
			c-0.29,0.41-0.65,0.81-1.08,1.2c-0.43,0.39-0.94,0.73-1.53,1.04s-1.25,0.55-1.99,0.73C271.71,71.87,270.91,71.96,270.03,71.96z
			 M269.48,57.21c-0.52,0-0.98,0.09-1.37,0.27c-0.39,0.18-0.73,0.44-1.01,0.76c-0.28,0.33-0.51,0.72-0.69,1.17
			c-0.18,0.45-0.3,0.96-0.38,1.51h6.68v-0.38c-0.01-0.48-0.08-0.92-0.21-1.33c-0.13-0.41-0.32-0.76-0.58-1.06
			c-0.26-0.3-0.59-0.53-1-0.7C270.52,57.29,270.04,57.21,269.48,57.21z M269.92,46.11h5.23l-4.6,5.15h-3.91L269.92,46.11z"/>
		<path class="st0" d="M289.63,66.66c0-0.25-0.05-0.49-0.15-0.7c-0.1-0.21-0.29-0.41-0.56-0.59c-0.28-0.18-0.65-0.36-1.13-0.52
			s-1.09-0.33-1.84-0.48c-0.92-0.2-1.77-0.45-2.55-0.75c-0.78-0.3-1.46-0.67-2.03-1.11c-0.57-0.44-1.02-0.96-1.34-1.54
			s-0.48-1.27-0.48-2.04c0-0.75,0.16-1.47,0.49-2.14c0.33-0.68,0.8-1.27,1.41-1.79c0.61-0.52,1.37-0.92,2.26-1.22
			c0.89-0.3,1.9-0.45,3.02-0.45c1.16,0,2.21,0.14,3.14,0.43s1.72,0.69,2.37,1.2c0.65,0.52,1.15,1.13,1.5,1.84
			c0.35,0.71,0.52,1.48,0.52,2.33h-4.8c0-0.69-0.22-1.25-0.66-1.7c-0.44-0.45-1.14-0.67-2.08-0.67c-0.81,0-1.43,0.18-1.88,0.55
			c-0.44,0.37-0.66,0.83-0.66,1.4c0,0.27,0.06,0.5,0.17,0.71c0.12,0.21,0.3,0.39,0.57,0.56c0.26,0.17,0.6,0.33,1.03,0.47
			c0.43,0.14,0.95,0.28,1.57,0.4c0.97,0.19,1.88,0.42,2.71,0.7c0.83,0.28,1.55,0.63,2.15,1.07c0.6,0.44,1.08,0.97,1.42,1.59
			c0.34,0.63,0.52,1.38,0.52,2.27c0,0.8-0.18,1.53-0.53,2.2c-0.35,0.67-0.86,1.25-1.52,1.74s-1.45,0.87-2.38,1.15
			c-0.93,0.28-1.97,0.42-3.12,0.42c-1.26,0-2.38-0.18-3.34-0.53s-1.78-0.82-2.43-1.4s-1.15-1.22-1.49-1.94
			c-0.33-0.72-0.5-1.45-0.5-2.18h4.55c0.02,0.47,0.12,0.87,0.31,1.21s0.42,0.61,0.72,0.82c0.3,0.21,0.65,0.37,1.04,0.46
			c0.39,0.1,0.81,0.15,1.24,0.15c0.92,0,1.61-0.17,2.08-0.52C289.39,67.68,289.63,67.23,289.63,66.66z"/>
		<path class="st0" d="M313.75,61.93l-2.59,2.79v6.91h-4.98V47.44h4.98V58.4l2.19-3.01l6.17-7.96h6.13l-8.59,10.75l8.84,13.44h-5.93
			L313.75,61.93z"/>
		<path class="st0" d="M327.59,49c0-0.72,0.24-1.31,0.72-1.78c0.48-0.46,1.14-0.7,1.97-0.7c0.41,0,0.78,0.06,1.11,0.18
			c0.33,0.12,0.62,0.29,0.85,0.51c0.23,0.22,0.41,0.48,0.54,0.79c0.13,0.3,0.19,0.63,0.19,0.99c0,0.37-0.06,0.7-0.19,1
			c-0.13,0.31-0.31,0.57-0.54,0.79s-0.51,0.39-0.85,0.52c-0.33,0.12-0.7,0.18-1.11,0.18s-0.78-0.06-1.11-0.18
			c-0.33-0.12-0.61-0.29-0.85-0.52c-0.23-0.22-0.41-0.48-0.54-0.79C327.66,49.7,327.59,49.36,327.59,49z M332.69,71.63h-4.82V53.65
			h4.82V71.63z"/>
		<path class="st0" d="M340.89,53.65l0.15,2.08c0.62-0.78,1.37-1.37,2.24-1.79c0.88-0.42,1.85-0.62,2.92-0.62
			c0.85,0,1.63,0.12,2.33,0.36c0.7,0.24,1.3,0.63,1.79,1.17c0.5,0.54,0.88,1.25,1.15,2.13s0.41,1.95,0.41,3.22v11.43h-4.8V60.17
			c0-0.58-0.06-1.05-0.19-1.43s-0.31-0.68-0.56-0.9c-0.24-0.22-0.54-0.38-0.9-0.47s-0.76-0.14-1.23-0.14
			c-0.71,0-1.32,0.16-1.82,0.47c-0.5,0.31-0.91,0.73-1.22,1.26v12.68h-4.8V53.65H340.89z"/>
		<path class="st0" d="M354.65,62.51c0-1.36,0.17-2.61,0.51-3.74s0.82-2.1,1.45-2.91s1.39-1.43,2.29-1.88
			c0.9-0.44,1.91-0.66,3.04-0.66c1.05,0,1.95,0.18,2.7,0.53c0.75,0.35,1.38,0.85,1.9,1.5l0.2-1.69h4.35v17.36
			c0,1.23-0.21,2.32-0.63,3.27c-0.42,0.95-1.01,1.76-1.77,2.42s-1.67,1.16-2.73,1.5c-1.06,0.34-2.23,0.51-3.51,0.51
			c-0.55,0-1.14-0.06-1.76-0.17c-0.62-0.11-1.23-0.28-1.84-0.51s-1.18-0.53-1.72-0.88s-1-0.78-1.38-1.26l2.13-2.92
			c0.56,0.63,1.21,1.12,1.94,1.48s1.53,0.53,2.42,0.53c1.27,0,2.26-0.34,2.97-1.02c0.71-0.68,1.06-1.65,1.06-2.9v-0.96
			c-0.53,0.6-1.16,1.06-1.88,1.39c-0.72,0.33-1.55,0.49-2.49,0.49c-1.12,0-2.12-0.23-3.02-0.69c-0.89-0.46-1.65-1.09-2.28-1.9
			s-1.11-1.77-1.45-2.88s-0.51-2.32-0.51-3.63V62.51z M359.46,62.86c0,0.73,0.07,1.41,0.22,2.04c0.14,0.63,0.37,1.18,0.67,1.65
			s0.69,0.84,1.15,1.11c0.46,0.27,1.01,0.41,1.64,0.41c0.76,0,1.4-0.14,1.92-0.43c0.51-0.29,0.92-0.69,1.22-1.21v-7.56
			c-0.31-0.53-0.72-0.94-1.22-1.22c-0.5-0.28-1.13-0.42-1.89-0.42c-0.63,0-1.18,0.14-1.64,0.41c-0.46,0.27-0.84,0.65-1.15,1.12
			c-0.31,0.48-0.54,1.04-0.69,1.68c-0.15,0.64-0.22,1.33-0.22,2.08V62.86z"/>
	</g>
	<g>
		<path class="st1" d="M2.14,28.54C11.08-3.94,52.72-0.06,60.39,0.35C69.19,0.83,76.33,7.16,74,16.24
			c-2.32,9.08-8.95,10.64-14.56,10.03C49,25.12,50.31,28.4,40.15,40.83c-5.89,7.21-7.35,10.08-8.51,18.54
			c-0.9,6.57-4.42,21.12-17.4,9.84C1.27,57.92-3.04,47.36,2.14,28.54z"/>
		<path class="st2" d="M2.14,28.54C11.08-3.94,52.72-0.06,60.39,0.35C69.19,0.83,76.33,7.16,74,16.24
			c-2.32,9.08-8.95,10.64-14.56,10.03C49,25.12,50.31,28.4,40.15,40.83c-5.89,7.21-7.35,10.08-8.51,18.54
			c-0.9,6.57-4.42,21.12-17.4,9.84C1.27,57.92-3.04,47.36,2.14,28.54z"/>
		<path class="st3" d="M61.33,2.43c27.85-5.3,56.97,13.23,33.1,28.18C57.12,53.99,76.05,62.24,65.12,73.56
			c-10.93,11.31-16.93,17.98-28.75,14c-4.73-1.59-8.19-9.87-15.13-14.19c-14.68-9.14-6.5-14.41-3.03-21.37
			c5.49-11,7.5-19.23,13.62-29.13C36.75,14.91,45.25,5.5,61.33,2.43z"/>
		<path class="st4" d="M61.33,2.43c27.85-5.3,56.97,13.23,33.1,28.18C57.12,53.99,76.05,62.24,65.12,73.56
			c-10.93,11.31-16.93,17.98-28.75,14c-4.73-1.59-8.19-9.87-15.13-14.19c-14.68-9.14-6.5-14.41-3.03-21.37
			c5.49-11,7.5-19.23,13.62-29.13C36.75,14.91,45.25,5.5,61.33,2.43z"/>
		<path class="st3" d="M84.97,14.73c-6.35,10.25-5.85,13.14-9.46,18.16c-3.61,5.02-10.47,16.99-11.73,20.43
			c-1.26,3.43-7.7,19.6,11.54,11.16c19.24-8.44,22.39-10.52,34.42-12.11c12.63-1.67,22.93-15.88,12.29-26.86
			C114.54,17.14,95.22-1.82,84.97,14.73z"/>
		<path class="st5" d="M84.97,14.73c-6.35,10.25-5.85,13.14-9.46,18.16c-3.61,5.02-10.47,16.99-11.73,20.43
			c-1.09,2.97-6.03,15.44,5.06,13.32c1.71-8.55-3.86-17.58,25.58-36.02c12.45-7.8,10.49-16.57,1.8-22.43
			C92.03,7.96,88.09,9.7,84.97,14.73z"/>
		<path class="st2" d="M2.14,28.54C11.08-3.94,52.72-0.06,60.39,0.35C69.19,0.83,76.33,7.16,74,16.24
			c-2.32,9.08-8.95,10.64-14.56,10.03C49,25.12,50.31,28.4,40.15,40.83c-5.89,7.21-7.35,10.08-8.51,18.54
			c-0.9,6.57-4.42,21.12-17.4,9.84C1.27,57.92-3.04,47.36,2.14,28.54z"/>
		<path class="st6" d="M66.46,1.72c-1.71,0.15-3.42,0.39-5.13,0.71C45.25,5.5,36.75,14.91,31.83,22.86
			c-6.12,9.9-8.12,18.13-13.62,29.13c-3.44,6.9-11.49,12.13,2.63,21.12c7.65,1.96,10.08-8.46,10.8-13.74
			c1.16-8.46,2.62-11.33,8.51-18.54C50.31,28.4,49,25.12,59.44,26.27c5.61,0.62,12.24-0.95,14.56-10.03
			C75.76,9.39,72.13,4.11,66.46,1.72z"/>
	</g>
</g>
</svg>
