<svg xmlns="http://www.w3.org/2000/svg" viewBox="0 0 418.44 454.01"><defs><style>.cls-1{fill:#faf1d2;}.cls-2{fill:#e1e356;}.cls-3{fill:#a8dde0;}.cls-4{fill:#8ec54c;}</style></defs><g id="Layer_2" data-name="Layer 2"><g id="Layer_1-2" data-name="Layer 1"><path class="cls-1" d="M0,287.65c0-79,58.06-130.86,126-192,80-72,163.05-129.08,241-73,139,100-41.12,424.19-167,431C89,459.65,0,389.65,0,287.65Z"/><path class="cls-2" d="M180,197.65c40-39,63-104,124-104,75.17,0,130.91,123.77,110,201-26,96-122,130-220,116s-110-63-104-106C96.54,257.81,148.07,228.78,180,197.65Z"/><path class="cls-3" d="M124,50.65c54-28,169,21,172,112s-38,85-60,107-74,89-138,57-28-116-26-151C75,122.65,77.55,74.73,124,50.65Z"/><path class="cls-4" d="M90,304.65a126.12,126.12,0,0,0-1.27,16.52A76.26,76.26,0,0,0,98,326.65c64,32,116-35,138-57s63-16,60-107c-.79-24.07-9.42-45.19-22.68-62.74C233.77,117.12,212.5,166,180,197.65,148.07,228.78,96.54,257.8,90,304.65Z"/></g></g></svg>